<svg width="22" height="21" viewBox="0 0 22 21" fill="none" xmlns="http://www.w3.org/2000/svg">
<path d="M3.98361 16.6393H5.47541M5.93443 4.93443V0M1 7.80328H20.623M15.6885 4.93443V0M3.98361 13.6557H5.47541M3.98361 10.7869H5.47541M6.85246 16.6393H8.34426M6.85246 13.6557H8.34426M6.85246 10.7869H8.34426M9.83607 16.6393H11.3279M9.83607 13.6557H11.3279M9.83607 10.7869H11.3279M12.7049 16.6393H14.1967M12.7049 13.6557H14.1967M12.7049 10.7869H14.1967M15.6885 16.6393H17.1803M15.6885 13.6557H17.1803M15.6885 10.7869H17.1803M2 1.95082H19.623C20.1752 1.95082 20.623 2.39853 20.623 2.95082V18.5082C20.623 19.0605 20.1752 19.5082 19.623 19.5082H2C1.44772 19.5082 1 19.0605 1 18.5082V2.95082C1 2.39853 1.44772 1.95082 2 1.95082Z" stroke="#00A0FF" stroke-width="1.5" stroke-miterlimit="22.9256"/>
</svg>
