<svg width="22" height="22" viewBox="0 0 22 22" fill="none" xmlns="http://www.w3.org/2000/svg">
<path d="M11.2813 6.05414C12.2533 6.44292 13.2252 7.02609 14.0028 7.80365C14.9747 8.77561 15.5579 9.94195 15.7523 11.1083M11.6701 3.5271C13.2252 3.91588 14.7803 4.69344 15.9467 6.05418C17.3074 7.22052 18.085 8.97004 18.4738 10.7196M12.0589 1C14.1972 1.38878 16.1411 2.55513 17.6962 4.11025C19.6401 5.85977 20.6121 8.19246 21.0008 10.3308M1.36737 4.88783L3.70006 2.55514C4.8664 1.38879 8.75422 5.471 7.78226 6.63734L6.03275 8.38686C6.61592 9.74759 7.78226 11.3027 9.143 12.6635C10.6981 14.2186 12.2533 15.3849 13.614 15.9681L15.3635 14.2186C16.3355 13.0522 20.4177 17.1344 19.4457 18.3008L16.9186 20.6335C15.5579 22.1886 9.92056 18.4952 6.61592 15.1905C3.50567 12.0803 -0.18776 6.44295 1.36737 4.88783Z" stroke="#00A0FF" stroke-width="1.5" stroke-miterlimit="22.9256"/>
</svg>
