<svg width="22.000000" height="22.750000" viewBox="0 0 22 22.75" fill="none" xmlns="http://www.w3.org/2000/svg" xmlns:xlink="http://www.w3.org/1999/xlink">
	<desc>
			Created with Pixso.
	</desc>
	<defs/>
	<path id="settings icon" d="M12.23 2C12.57 2 13.02 2.33 13.02 2.78L13.02 4.24C13.69 4.35 14.37 4.69 15.04 5.03L16.05 4.02C16.39 3.68 16.95 3.68 17.17 4.02L18.86 5.7C19.2 6.04 19.2 6.6 18.86 6.83L17.85 7.95C18.3 8.51 18.52 9.19 18.75 9.97L20.21 9.97C20.66 9.97 21 10.31 21 10.76L21 13.23C21 13.57 20.66 14.02 20.21 14.02L18.75 14.02C18.52 14.69 18.3 15.37 17.85 16.04L18.86 17.05C19.2 17.39 19.2 17.95 18.86 18.17L17.17 19.86C16.95 20.2 16.39 20.2 16.05 19.86L15.04 18.85C14.37 19.3 13.69 19.52 13.02 19.75L13.02 21.21C13.02 21.66 12.57 22 12.23 22L9.76 22C9.31 22 8.97 21.66 8.97 21.21L8.97 19.75C8.19 19.52 7.51 19.3 6.95 18.85L5.83 19.86C5.6 20.2 5.04 20.2 4.7 19.86L3.02 18.17C2.68 17.95 2.68 17.39 3.02 17.05L4.03 16.04C3.69 15.37 3.35 14.69 3.24 14.02L1.78 14.02C1.33 14.02 1 13.57 1 13.23L1 10.76C1 10.31 1.33 9.97 1.78 9.97L3.24 9.97C3.35 9.19 3.69 8.51 4.03 7.95L3.02 6.83C2.68 6.6 2.68 6.04 3.02 5.7L4.7 4.02C5.04 3.68 5.6 3.68 5.83 4.02L6.95 5.03C7.51 4.69 8.19 4.35 8.97 4.24L8.97 2.78C8.97 2.33 9.31 2 9.76 2L12.23 2ZM14 12C14 13.64 12.64 15 11 15C9.35 15 7.99 13.64 7.99 12C7.99 10.35 9.35 8.99 11 8.99C12.64 8.99 14 10.35 14 12Z" stroke="#FFFFFF" stroke-opacity="1.000000" stroke-width="1.500000"/>
</svg>
