<svg aria-hidden="true" style="position: absolute; width: 0; height: 0; overflow: hidden;" version="1.1" xmlns="http://www.w3.org/2000/svg" xmlns:xlink="http://www.w3.org/1999/xlink">
<defs>
<symbol id="flamp" viewBox="0 0 32 32">
<path fill="#00a0ff" style="fill: var(--color1, #00a0ff)" d="M7.38 0c-4.074 0-7.38 3.306-7.38 7.38v17.24c0 4.074 3.306 7.38 7.38 7.38h17.24c4.074 0 7.38-3.306 7.38-7.38v-17.24c0-4.074-3.306-7.38-7.38-7.38h-17.24zM16 4.9c6.14 0 11.1 4.959 11.1 11.1s-4.959 11.1-11.1 11.1c-6.14 0-11.1-4.959-11.1-11.1s4.959-11.1 11.1-11.1z"></path>
<path fill="#00a0ff" style="fill: var(--color1, #00a0ff)" d="M16.268 8.533c-4.251 0-7.734 3.483-7.734 7.734v7.734h7.734c4.251 0 7.734-3.483 7.734-7.734v-7.734h-7.734zM16.268 11.426c2.657 0 4.841 2.184 4.841 4.841s-2.185 4.841-4.841 4.841c-2.657 0-4.841-2.185-4.841-4.841s2.184-4.841 4.841-4.841z"></path>
</symbol>
<symbol id="zoon" viewBox="0 0 32 32">
<path fill="#00a0ff" style="fill: var(--color1, #00a0ff)" d="M7.377 0c-4.024 0-7.377 3.353-7.377 7.377v17.245c0 4.12 3.353 7.377 7.377 7.377h17.245c4.12 0 7.377-3.258 7.377-7.377v-17.245c0-4.024-3.258-7.377-7.377-7.377h-17.245zM9.198 8.623h13.605c0.287 0 0.575 0.287 0.575 0.575v2.491c0 0.383 0 0.671-0.287 0.958l-7.76 6.707h7.473c0.287 0 0.575 0.192 0.575 0.575v2.874c0 0.287-0.287 0.575-0.575 0.575h-13.605c-0.287 0-0.575-0.287-0.575-0.575v-2.491c0-0.479 0.192-0.766 0.479-0.958l7.569-6.611h-7.473c-0.287 0-0.575-0.287-0.575-0.671v-2.874c0-0.287 0.287-0.575 0.575-0.575z"></path>
</symbol>
<symbol id="vk" viewBox="0 0 32 32">
<path fill="#00a0ff" style="fill: var(--color1, #00a0ff)" d="M7.423 0h17.32c3.959 0 7.258 3.299 7.258 7.423v17.32c0 3.959-3.299 7.258-7.258 7.258h-17.32c-4.124 0-7.423-3.299-7.423-7.258v-17.32c0-4.124 3.299-7.423 7.423-7.423zM6.103 9.897c0.165 7.588 4.124 12.206 10.887 12.206h0.33v-4.289c2.474 0.165 4.289 1.979 5.113 4.289h3.464c-0.99-3.464-3.464-5.278-5.114-6.103 1.649-0.825 3.794-3.134 4.289-6.103h-3.134c-0.66 2.474-2.639 4.619-4.619 4.784v-4.784h-3.134v8.577c-1.979-0.495-4.454-2.969-4.619-8.577h-3.464z"></path>
</symbol>
<symbol id="gis" viewBox="0 0 32 32">
<path fill="#00a0ff" style="fill: var(--color1, #00a0ff)" d="M7.415 0c-4.033 0-7.415 3.382-7.415 7.415v17.171c0 4.163 3.382 7.415 7.415 7.415h17.171c4.163 0 7.415-3.252 7.415-7.415v-17.171c0-4.033-3.252-7.415-7.415-7.415h-17.171zM16 5.463c4.813 0 8.585 3.902 8.585 8.715 0 1.821-0.52 3.512-1.431 4.813-0.13 0-0.26 0-0.39 0-3.382 0-6.114 2.862-6.114 6.244v1.301h-1.301v-1.301c0-3.512-2.862-6.374-6.374-6.244-1.041-1.301-1.561-2.992-1.561-4.813 0-4.813 3.772-8.715 8.585-8.715z"></path>
</symbol>
</defs>
</svg>
